<svg width="12" height="12" viewBox="0 0 12 12" fill="none" xmlns="http://www.w3.org/2000/svg">
<path d="M9.45227 7.35337C9.30119 7.49979 9.23177 7.71154 9.26619 7.91921L9.78477 10.7892C9.82852 11.0325 9.72585 11.2786 9.52227 11.4192C9.32277 11.565 9.05735 11.5825 8.83977 11.4659L6.25619 10.1184C6.16635 10.0705 6.0666 10.0449 5.96452 10.042H5.80644C5.7516 10.0501 5.69794 10.0676 5.64894 10.0945L3.06477 11.4484C2.93702 11.5125 2.79235 11.5353 2.6506 11.5125C2.30527 11.4472 2.07485 11.1182 2.13144 10.7711L2.6506 7.90112C2.68502 7.69171 2.6156 7.47879 2.46452 7.33004L0.358104 5.28837C0.181937 5.11746 0.120687 4.86079 0.201187 4.62921C0.279354 4.39821 0.478854 4.22962 0.719771 4.19171L3.61894 3.77112C3.83944 3.74837 4.0331 3.61421 4.13227 3.41587L5.40977 0.796707C5.4401 0.738374 5.47919 0.684707 5.52644 0.639207L5.57894 0.598374C5.60635 0.568041 5.63785 0.542957 5.67285 0.522541L5.73644 0.499207L5.8356 0.458374H6.08119C6.30052 0.481124 6.4936 0.612374 6.59452 0.808374L7.88894 3.41587C7.98227 3.60662 8.16369 3.73904 8.3731 3.77112L11.2723 4.19171C11.5173 4.22671 11.722 4.39587 11.8031 4.62921C11.8795 4.86312 11.8136 5.11979 11.6339 5.28837L9.45227 7.35337Z" fill="#FFAC37"/>
</svg>
