<svg width="40" height="40" viewBox="0 0 40 40" fill="none" xmlns="http://www.w3.org/2000/svg">
<rect width="40" height="40" rx="5" fill="white"/>
<path d="M13.0859 22.6445V10.9375H17.1875V22.6445C17.1875 23.7852 16.9258 24.7734 16.4023 25.6094C15.8867 26.4453 15.1836 27.0938 14.293 27.5547C13.4102 28.0078 12.418 28.2344 11.3164 28.2344C10.1758 28.2344 9.16016 28.043 8.26953 27.6602C7.38672 27.2773 6.69141 26.6875 6.18359 25.8906C5.68359 25.0938 5.43359 24.0781 5.43359 22.8438H9.55859C9.55859 23.4219 9.625 23.875 9.75781 24.2031C9.89062 24.5234 10.0859 24.75 10.3438 24.8828C10.6094 25.0078 10.9336 25.0703 11.3164 25.0703C11.6914 25.0703 12.0078 24.9766 12.2656 24.7891C12.5312 24.5938 12.7344 24.3164 12.875 23.957C13.0156 23.5898 13.0859 23.1523 13.0859 22.6445Z" fill="#FB9333"/>
<path d="M28.5898 23.4648C28.5898 23.1992 28.5508 22.9609 28.4727 22.75C28.3945 22.5312 28.25 22.3281 28.0391 22.1406C27.8281 21.9531 27.5234 21.7656 27.125 21.5781C26.7344 21.3828 26.2188 21.1797 25.5781 20.9688C24.8281 20.7188 24.1055 20.4375 23.4102 20.125C22.7148 19.8047 22.0938 19.4336 21.5469 19.0117C21 18.582 20.5664 18.082 20.2461 17.5117C19.9258 16.9336 19.7656 16.2617 19.7656 15.4961C19.7656 14.7617 19.9297 14.1016 20.2578 13.5156C20.5859 12.9219 21.043 12.418 21.6289 12.0039C22.2227 11.582 22.918 11.2617 23.7148 11.043C24.5117 10.8164 25.3828 10.7031 26.3281 10.7031C27.5781 10.7031 28.6797 10.9219 29.6328 11.3594C30.5938 11.7891 31.3438 12.4023 31.8828 13.1992C32.4297 13.9883 32.7031 14.9219 32.7031 16H28.6133C28.6133 15.5703 28.5234 15.1914 28.3438 14.8633C28.1719 14.5352 27.9102 14.2773 27.5586 14.0898C27.207 13.9023 26.7656 13.8086 26.2344 13.8086C25.7188 13.8086 25.2852 13.8867 24.9336 14.043C24.582 14.1992 24.3164 14.4102 24.1367 14.6758C23.957 14.9336 23.8672 15.2188 23.8672 15.5312C23.8672 15.7891 23.9375 16.0234 24.0781 16.2344C24.2266 16.4375 24.4336 16.6289 24.6992 16.8086C24.9727 16.9883 25.3008 17.1602 25.6836 17.3242C26.0742 17.4883 26.5117 17.6484 26.9961 17.8047C27.9023 18.0938 28.707 18.418 29.4102 18.7773C30.1211 19.1289 30.7188 19.5312 31.2031 19.9844C31.6953 20.4297 32.0664 20.9375 32.3164 21.5078C32.5742 22.0781 32.7031 22.7227 32.7031 23.4414C32.7031 24.207 32.5547 24.8867 32.2578 25.4805C31.9609 26.0742 31.5352 26.5781 30.9805 26.9922C30.4258 27.3984 29.7617 27.707 28.9883 27.918C28.2148 28.1289 27.3516 28.2344 26.3984 28.2344C25.5234 28.2344 24.6602 28.125 23.8086 27.9062C22.9648 27.6797 22.1992 27.3359 21.5117 26.875C20.8242 26.4062 20.2734 25.8086 19.8594 25.082C19.4531 24.3477 19.25 23.4766 19.25 22.4688H23.375C23.375 22.9688 23.4414 23.3906 23.5742 23.7344C23.707 24.0781 23.9023 24.3555 24.1602 24.5664C24.418 24.7695 24.7344 24.918 25.1094 25.0117C25.4844 25.0977 25.9141 25.1406 26.3984 25.1406C26.9219 25.1406 27.3438 25.0664 27.6641 24.918C27.9844 24.7617 28.2188 24.5586 28.3672 24.3086C28.5156 24.0508 28.5898 23.7695 28.5898 23.4648Z" fill="#585858"/>
</svg>
